<svg width="1615" height="996" viewBox="0 0 1615 996" fill="none" xmlns="http://www.w3.org/2000/svg">
<g clip-path="url(#clip0_214_2565)">
<rect width="1615" height="996" fill="#96A4D3"/>
<g clip-path="url(#clip1_214_2565)">
<rect width="1845.22" height="996" transform="translate(-109)" fill="url(#paint0_linear_214_2565)"/>
<path d="M450.773 566.85C626.72 753.82 880.911 800.409 1018.52 670.908C1033.89 656.453 1047.14 640.415 1058.33 623.067C1064.86 612.95 1077.5 608.979 1088.91 612.838V612.838C1106.37 618.749 1118.42 642.343 1108.69 658.003C1053.91 746.108 1050.38 843.747 1105.57 891.119C1146.32 926.092 1209.29 925.276 1271.17 895.29C1317.46 872.86 1379.76 881.234 1418.79 914.734V914.734C1526.19 1006.92 1679.27 1004.72 1760.72 909.839C1842.16 814.954 1891.41 670.089 1784.02 577.908C1742.25 542.06 1681.63 525.723 1624.02 522.232C1565.84 518.707 1500.22 503.27 1468.34 454.476C1458.54 439.476 1449.84 422.818 1444.2 404.72C1422.51 335.159 1467.78 287.711 1460.1 225.037C1452.41 162.362 1392.6 118.561 1338.61 120.54C1286.94 122.433 1245.89 169.828 1229.29 189.169C1229 189.504 1228.71 189.851 1228.42 190.211C1215.13 206.777 1197.98 220.962 1176.76 221.739V221.739C1172.75 221.886 1168.73 221.628 1164.87 220.525C1156.44 218.116 1141.04 212.368 1133.24 201.044C1122.16 184.964 1120.45 146.674 1100.18 129.277C1086.39 117.445 1068.15 113.497 1049.91 116.707C1065.26 75.009 1053.23 25.4203 1016.3 -6.27791C969.307 -46.6131 899.792 -42.7075 861.036 2.44569V2.44569C855.883 8.44993 846.982 10.2685 840.386 5.89917C679.772 -100.483 492.531 -110.782 381.365 -6.17013C243.752 123.33 274.827 379.88 450.773 566.85Z" fill="url(#paint1_linear_214_2565)"/>
<path d="M1773.76 -34.1112C1773.76 -7.16106 1769.15 18.6101 1760.74 42.3085C1851.74 59.3177 1921 146.05 1921 250.486C1921 367.129 1834.6 461.688 1728.02 461.688C1621.44 461.688 1535.04 367.129 1535.04 250.486C1535.04 237.593 1536.09 224.97 1538.12 212.715C1545.29 198.189 1549.33 181.758 1549.33 164.358C1549.33 105.209 1502.61 57.2595 1444.98 57.2595C1420.12 57.2595 1397.3 66.1793 1379.37 81.0702C1370.28 84.0934 1360.63 85.7193 1350.63 85.7193C1296.16 85.7193 1252 37.4346 1252 -22.1282C1252 -81.6909 1296.16 -129.976 1350.63 -129.976C1369.51 -129.976 1387.14 -124.179 1402.13 -114.126C1430.94 -191.095 1500.08 -245.312 1580.78 -245.312C1687.36 -245.312 1773.76 -150.754 1773.76 -34.1112Z" fill="url(#paint2_linear_214_2565)"/>
<path d="M1584.06 -147.735V-147.735C1555.12 -137.043 1519.33 -143.635 1494.64 -161.418C1455.21 -189.814 1400.23 -197.972 1347.36 -178.439C1264.87 -147.958 1218.79 -61.5889 1244.43 14.4714C1270.07 90.5317 1357.73 127.481 1440.23 96.9995C1442.22 96.2625 1444.19 95.4928 1446.15 94.6914C1459.81 89.0807 1470.97 78.5991 1483.7 70.9886C1488.08 68.3699 1492.75 66.1181 1497.7 64.2912C1539.53 48.8344 1584.68 69.6457 1598.55 110.775C1602.03 121.112 1603.21 131.75 1602.35 142.128C1601.14 156.783 1596.47 171.752 1601.12 185.541V185.541C1614.22 224.416 1659 243.313 1701.12 227.748C1743.24 212.183 1766.77 168.051 1753.66 129.176V129.176C1746.95 109.262 1745.78 83.259 1758.1 65.8818C1785.26 27.5393 1794.89 -20.6059 1779.85 -65.2067C1754.21 -141.267 1666.55 -178.216 1584.06 -147.735Z" fill="url(#paint3_linear_214_2565)"/>
<ellipse cx="622.35" cy="164.004" rx="394.656" ry="229.155" transform="rotate(11.2586 622.35 164.004)" fill="url(#paint4_linear_214_2565)"/>
<path d="M1244.96 288.109C1162.58 304.584 1086.95 217.717 997.084 209.477C942.764 204.497 934.741 208.383 905.269 219.117C845.472 240.895 799.859 293.242 798.411 356.865L791.069 679.486C789.424 751.789 843.956 813.06 915.961 819.812L1735.22 896.637C1752.55 898.262 1769.77 892.505 1782.64 880.78C1808.45 857.258 1809.7 817.054 1785.84 791.549C1739.12 741.6 1678.57 674.374 1644.86 628.846C1587.2 550.963 1476.36 577.923 1444.91 554.708C1429.75 543.522 1405.69 506.964 1384.2 470.491C1360.71 430.631 1362.5 381.605 1380.36 338.926C1405.97 277.744 1429.08 195.875 1372.27 190.751C1280.91 182.511 1327.34 271.634 1244.96 288.109Z" fill="url(#paint5_linear_214_2565)"/>
<path d="M664.131 27.472L625.856 -13.9319C601.694 -40.0694 568.348 -55.7496 532.856 -58.4599C397.363 -68.8068 227.247 -88.4878 215.713 -94.2547C199.238 -102.492 263.642 387.27 262.144 418.723C260.646 450.175 1143.57 495.108 1160.79 498.103C1173.82 500.369 1024.56 324.637 950.02 231.63C941.93 221.535 935.448 210.344 930.571 198.363L913.721 156.966C891.842 103.213 838.627 68.9308 780.637 71.23L770.772 71.6211C730.477 73.2187 691.505 57.0844 664.131 27.472Z" fill="url(#paint6_linear_214_2565)"/>
<path d="M1648.18 800.851L1639.41 792.416C1619.37 773.15 1593.07 761.819 1565.35 759.815C1492.18 754.527 1406.82 745.638 1400.73 742.932C1391.55 738.85 1427.45 981.513 1426.61 997.097C1425.78 1012.68 1917.89 1034.94 1927.49 1036.43C1934.57 1037.52 1855.6 954.718 1813.15 907.877C1806.55 900.584 1801.18 892.316 1797.09 883.368L1793.6 875.758C1778.98 843.83 1746.59 823.832 1711.5 825.069C1687.98 825.898 1665.14 817.16 1648.18 800.851Z" fill="url(#paint7_linear_214_2565)"/>
<path d="M227.448 -32.9502C181.874 -32.9502 136.729 -47.9659 101.633 -77.0402C30.8626 -135.668 -45.7968 -161.879 -117.482 -144.112C-291.77 -100.916 -370.658 185.876 -293.684 496.456C-293.642 496.626 -293.6 496.796 -293.558 496.966C-288.505 517.311 -287.203 538.392 -289.299 559.25C-298.838 654.126 -291.234 762.069 -263.729 873.048C-186.756 1183.63 16.9323 1400.39 191.22 1357.19V1357.19C267.228 1338.35 359.84 1324.52 427.42 1364.08C546.463 1433.77 689.197 1459.07 830.512 1424.05C981.792 1386.56 1102.22 1287.18 1173.7 1157.58C1179.05 1147.88 1193.67 1148.07 1199.05 1157.76V1157.76C1267.46 1281.06 1400.23 1338.11 1495.6 1285.2C1535.83 1262.88 1562.98 1224.55 1575.78 1178.44C1589.26 1129.94 1643.21 1077.97 1687.24 1053.57V1053.57C1745.14 1021.49 1773.75 962.406 1751.14 921.604C1745.15 910.789 1737.45 898.306 1729.36 885.8C1709.2 854.637 1663.11 859.789 1648.48 893.895C1647.21 896.847 1645.94 899.816 1644.66 902.788C1629.85 937.244 1584.04 935.927 1570.6 900.91V900.91C1568.7 895.949 1567.72 890.679 1567.72 885.365V740.423C1567.72 670.557 1497.19 622.765 1432.3 648.668L1399.39 661.805C1384.37 667.803 1367.24 664.69 1355.28 653.791V653.791C1333.43 633.861 1338.29 596.978 1358.15 575.053C1380.52 550.345 1398.44 514.2 1379.5 469C1342 379.5 1169.97 461.658 1128.89 389.413C1094.9 329.647 1119.9 324.261 1067.48 223.164C1045.17 180.135 965.68 128.746 928.188 172.794C894.785 212.036 928.188 255.017 964.882 299.549C957.855 291.02 924 283.467 900.191 280.479C890.53 279.267 882.126 267.22 878.942 258.019V258.019C873.138 241.251 854.027 232.644 836.257 238.794V238.794C834.629 239.358 832.841 237.856 833.159 236.163C834.663 228.144 834.172 219.689 831.336 211.494C822.652 186.407 795.176 172.993 769.188 180.717C768.986 178.064 768.445 175.407 767.541 172.794C761.422 155.118 740.97 146.15 721.859 152.764C702.749 159.38 692.215 179.071 698.334 196.747C703.315 211.141 717.801 219.761 733.329 218.893C730.485 234.397 740.221 241.284 740.221 242.634C724.188 240.738 711.73 249.376 705.584 256.108C704.726 257.048 703.1 256.751 702.684 255.549V255.549C685.614 206.231 630.985 180.369 580.665 197.786C570.728 201.225 561.701 206.095 553.746 212.076C538.465 179.376 505.753 159.004 470.374 157.949C474.107 147.113 476.074 135.858 476.074 124.313C476.074 37.4584 364.76 -32.9502 227.448 -32.9502V-32.9502Z" fill="url(#paint8_linear_214_2565)"/>
<path d="M671.234 143.664C667.675 133.38 673.979 121.862 685.315 117.937C696.651 114.015 708.726 119.172 712.286 129.456C715.846 139.741 709.542 151.259 698.206 155.182C686.87 159.106 674.795 153.949 671.234 143.664Z" fill="url(#paint9_linear_214_2565)"/>
<path opacity="0.3" d="M150.405 1616.15C-202.141 1565.25 -459.391 1313.12 -424.18 1053C-422.582 1041.2 -420.409 1029.58 -417.684 1018.16C-407.298 974.642 -428.92 914.354 -458.26 880.576V880.576C-464.743 873.112 -462.728 872.546 -465.624 863.093C-486.256 795.773 -566.776 504.698 -466.813 355.78C-412.545 274.936 -353.853 235.454 -276.986 194.128C-200.118 152.802 -102.558 185.888 -61.3089 248.926C-21.8321 309.255 -42.2143 393.857 -50.6555 428.208C-50.7748 428.693 -50.9037 429.187 -51.0414 429.687C-58.9077 458.28 -61.2992 489.239 -45.0618 514.054V514.054C-42.0107 518.717 -38.5003 523.063 -34.1646 526.563C-24.6665 534.231 -5.76494 547.193 13.3047 547.028C40.3621 546.794 84.9185 518.149 120.861 527.322C145.306 533.561 164.452 551.178 175.52 574.5C210.18 523.712 275.791 497.79 341.28 514.504C424.611 535.771 476.191 618.022 456.483 698.214V698.214C453.857 708.898 458.934 720.444 469.176 724.462C718.518 822.293 880.947 1027.22 852.502 1237.35C817.289 1497.46 502.951 1667.06 150.405 1616.15Z" fill="url(#paint10_linear_214_2565)"/>
<path d="M299.532 898.118C237.532 894.417 186.806 830.213 187.695 768.11C188.289 726.678 180.301 684.811 152.999 657.509C81.1068 585.617 -197.474 660.152 -197.474 727.154C-197.474 763.988 -129.021 868.48 -72.2327 930.44C-48.3862 956.459 -43.0012 1007.88 -43.0012 1043.18V1043.18C-43.0012 1121.35 58.9244 1184.71 184.656 1184.71C310.387 1184.71 649.501 1059.65 519.946 964.547C457.138 918.439 371.304 902.403 299.532 898.118Z" fill="url(#paint11_linear_214_2565)"/>
<path d="M187.541 975.674C127.417 960.111 89.1019 887.956 97.314 826.396C101.65 793.892 99.0409 761.152 81.4277 736.119C28.7028 661.181 -230.079 684.435 -240.415 743.946C-246.097 776.66 -201.461 880.011 -160.613 943.801C-143.453 970.598 -146.602 1017.1 -152.048 1048.46V1048.46C-164.106 1117.89 -83.4066 1189.88 28.1999 1209.27C139.806 1228.65 460.115 1169.85 359.786 1065.4C314.495 1018.25 247.459 991.184 187.541 975.674Z" fill="url(#paint12_linear_214_2565)"/>
</g>
</g>
<defs>
<linearGradient id="paint0_linear_214_2565" x1="1509.73" y1="392.409" x2="1624.3" y2="134.048" gradientUnits="userSpaceOnUse">
<stop stop-color="#4E607F"/>
<stop offset="1" stop-color="#8A4479"/>
</linearGradient>
<linearGradient id="paint1_linear_214_2565" x1="1382.1" y1="161.95" x2="1104.03" y2="610.524" gradientUnits="userSpaceOnUse">
<stop stop-color="#47C4B4"/>
<stop offset="1" stop-color="#367A8B"/>
</linearGradient>
<linearGradient id="paint2_linear_214_2565" x1="1558.43" y1="108.187" x2="1589.23" y2="461.45" gradientUnits="userSpaceOnUse">
<stop stop-color="#CA386E"/>
<stop offset="1" stop-color="#7E4F7B"/>
</linearGradient>
<linearGradient id="paint3_linear_214_2565" x1="1670.1" y1="105.714" x2="1347.46" y2="-19.0916" gradientUnits="userSpaceOnUse">
<stop stop-color="#F64D52"/>
<stop offset="1" stop-color="#D5366C"/>
</linearGradient>
<linearGradient id="paint4_linear_214_2565" x1="524.695" y1="-13.5575" x2="987.041" y2="-16.0703" gradientUnits="userSpaceOnUse">
<stop stop-color="#29819C"/>
<stop offset="1" stop-color="#18A5A7"/>
</linearGradient>
<linearGradient id="paint5_linear_214_2565" x1="1417.2" y1="240.388" x2="1135.63" y2="556.412" gradientUnits="userSpaceOnUse">
<stop stop-color="#53CEBE"/>
<stop offset="1" stop-color="#246D80"/>
</linearGradient>
<linearGradient id="paint6_linear_214_2565" x1="988.846" y1="280.079" x2="403.228" y2="8.23811" gradientUnits="userSpaceOnUse">
<stop stop-color="#683372"/>
<stop offset="1" stop-color="#841C6B"/>
</linearGradient>
<linearGradient id="paint7_linear_214_2565" x1="1609.66" y1="791.558" x2="1601.19" y2="927.089" gradientUnits="userSpaceOnUse">
<stop stop-color="#C64067"/>
<stop offset="1" stop-color="#922A5A"/>
</linearGradient>
<linearGradient id="paint8_linear_214_2565" x1="1230.73" y1="394.655" x2="305.126" y2="894.153" gradientUnits="userSpaceOnUse">
<stop stop-color="#FF9B3F"/>
<stop offset="1" stop-color="#DD1B5D"/>
</linearGradient>
<linearGradient id="paint9_linear_214_2565" x1="1230.73" y1="394.655" x2="305.126" y2="894.153" gradientUnits="userSpaceOnUse">
<stop stop-color="#FF9B3F"/>
<stop offset="1" stop-color="#DD1B5D"/>
</linearGradient>
<linearGradient id="paint10_linear_214_2565" x1="6.67373" y1="497.051" x2="48.7259" y2="1302.64" gradientUnits="userSpaceOnUse">
<stop stop-color="#F08E33"/>
<stop offset="1" stop-color="#DD1B5D"/>
</linearGradient>
<linearGradient id="paint11_linear_214_2565" x1="242.114" y1="781.822" x2="-24.4842" y2="966.794" gradientUnits="userSpaceOnUse">
<stop stop-color="#AC1B5F"/>
<stop offset="1" stop-color="#D32960"/>
</linearGradient>
<linearGradient id="paint12_linear_214_2565" x1="177.265" y1="843.979" x2="-16.8141" y2="1052.8" gradientUnits="userSpaceOnUse">
<stop stop-color="#AD195F"/>
<stop offset="1" stop-color="#CB2661"/>
</linearGradient>
<clipPath id="clip0_214_2565">
<rect width="1615" height="996" fill="white"/>
</clipPath>
<clipPath id="clip1_214_2565">
<rect width="1845.22" height="996" fill="white" transform="translate(-109)"/>
</clipPath>
</defs>
</svg>
