<svg width="137" height="172" viewBox="0 0 137 172" fill="none" xmlns="http://www.w3.org/2000/svg">
<path fill-rule="evenodd" clip-rule="evenodd" d="M59.0668 4.53405C56.9014 9.71081 51.8186 21.8622 21.2253 53.4653C19.2204 55.5364 17.593 57.5347 16.3098 59.4555C6.27771 71.6542 0 87.2968 0 103.174C0 141.185 31.1005 172 69.4648 172C107.829 172 137 136.631 137 105.085C137 86.8298 131.184 74.0168 126.284 66.4607C122.691 60.0333 118.167 55.0436 114.798 51.8362C112.131 49.2976 108.039 49.5431 105.345 52.0527C105.345 52.0527 93.7363 62.8644 86.2981 69.792C86.1269 70.1407 86.4821 69.4528 86.2981 69.792C99.4914 42.9216 78.3368 10.6963 69.4648 2.25105C66.798 -0.287546 62.1365 -1.2626 60.012 2.46756C59.7083 3.00087 59.428 3.67046 59.0668 4.53405ZM33.5136 136.263C36.0375 146.521 43.9588 153.418 51.2063 151.668C58.4538 149.917 62.283 140.182 59.7591 129.924C57.2352 119.665 49.3139 112.768 42.0664 114.519C34.8189 116.269 30.9897 126.004 33.5136 136.263ZM105.743 136.263C103.219 146.521 95.2974 153.418 88.0499 151.668C80.8024 149.917 76.9732 140.182 79.4971 129.924C82.021 119.665 89.9423 112.768 97.1898 114.519C104.437 116.269 108.267 126.004 105.743 136.263Z" fill="url(#paint0_linear_213_2655)"/>
<path fill-rule="evenodd" clip-rule="evenodd" d="M59.0668 4.53405C56.9014 9.71081 51.8186 21.8622 21.2253 53.4653C19.2204 55.5364 17.593 57.5347 16.3098 59.4555C6.27771 71.6542 0 87.2968 0 103.174C0 141.185 31.1005 172 69.4648 172C107.829 172 137 136.631 137 105.085C137 86.8298 131.184 74.0168 126.284 66.4607C122.691 60.0333 118.167 55.0436 114.798 51.8362C112.131 49.2976 108.039 49.5431 105.345 52.0527C105.345 52.0527 93.7363 62.8644 86.2981 69.792C86.1269 70.1407 86.4821 69.4528 86.2981 69.792C99.4914 42.9216 78.3368 10.6963 69.4648 2.25105C66.798 -0.287546 62.1365 -1.2626 60.012 2.46756C59.7083 3.00087 59.428 3.67046 59.0668 4.53405ZM33.5136 136.263C36.0375 146.521 43.9588 153.418 51.2063 151.668C58.4538 149.917 62.283 140.182 59.7591 129.924C57.2352 119.665 49.3139 112.768 42.0664 114.519C34.8189 116.269 30.9897 126.004 33.5136 136.263ZM105.743 136.263C103.219 146.521 95.2974 153.418 88.0499 151.668C80.8024 149.917 76.9732 140.182 79.4971 129.924C82.021 119.665 89.9423 112.768 97.1898 114.519C104.437 116.269 108.267 126.004 105.743 136.263Z" fill="white"/>
<defs>
<linearGradient id="paint0_linear_213_2655" x1="-534.492" y1="132.873" x2="-319.383" y2="523.764" gradientUnits="userSpaceOnUse">
<stop stop-color="#FF3166"/>
<stop offset="0.489583" stop-color="#F16954"/>
<stop offset="1" stop-color="#F2A041"/>
</linearGradient>
</defs>
</svg>
