<svg width="156" height="40" viewBox="0 0 156 40" fill="none" xmlns="http://www.w3.org/2000/svg">
<path d="M0 26.9717C0 23.075 0.0781813 20.0746 0.0781813 16.1779C2.65816 15.7883 5.90269 15.5155 8.09176 15.5155C13.9163 15.5155 17.9035 15.9831 17.9035 22.2957C17.9035 25.1792 16.3008 27.3614 13.7208 28.5693C14.6199 28.8811 15.3626 29.5045 15.9099 30.4008C17.4344 33.4402 18.3335 36.2458 18.998 39.1683C17.7081 39.3241 16.3008 39.4021 14.9326 39.4021C13.8772 39.4021 12.8217 39.3631 11.7663 39.2852C11.5708 39.2852 11.2581 39.1293 11.1799 38.8955C10.0854 35.5833 8.99085 32.2712 8.20903 29.5825C8.05267 29.5825 7.85722 29.5825 7.70085 29.5825C7.73994 32.7777 7.85722 36.1289 7.89631 39.1683C6.72359 39.2462 5.58996 39.2462 4.45633 39.2462C3.12725 39.2462 1.79817 39.2462 0.469088 39.1683C0.234544 39.1683 0.0781813 39.0124 0.0781813 38.7786C0.0781813 35.1157 0 30.8684 0 26.9717ZM7.70085 24.7896H8.3654C9.5772 24.7896 10.4372 24.1271 10.4372 23.114C10.4372 21.906 10.0463 21.2436 8.63903 21.2436C8.3263 21.2436 7.97449 21.2436 7.70085 21.2826C7.70085 22.4126 7.70085 23.5426 7.70085 24.7896Z" fill="url(#paint0_linear_213_2654)"/>
<path d="M0 26.9717C0 23.075 0.0781813 20.0746 0.0781813 16.1779C2.65816 15.7883 5.90269 15.5155 8.09176 15.5155C13.9163 15.5155 17.9035 15.9831 17.9035 22.2957C17.9035 25.1792 16.3008 27.3614 13.7208 28.5693C14.6199 28.8811 15.3626 29.5045 15.9099 30.4008C17.4344 33.4402 18.3335 36.2458 18.998 39.1683C17.7081 39.3241 16.3008 39.4021 14.9326 39.4021C13.8772 39.4021 12.8217 39.3631 11.7663 39.2852C11.5708 39.2852 11.2581 39.1293 11.1799 38.8955C10.0854 35.5833 8.99085 32.2712 8.20903 29.5825C8.05267 29.5825 7.85722 29.5825 7.70085 29.5825C7.73994 32.7777 7.85722 36.1289 7.89631 39.1683C6.72359 39.2462 5.58996 39.2462 4.45633 39.2462C3.12725 39.2462 1.79817 39.2462 0.469088 39.1683C0.234544 39.1683 0.0781813 39.0124 0.0781813 38.7786C0.0781813 35.1157 0 30.8684 0 26.9717ZM7.70085 24.7896H8.3654C9.5772 24.7896 10.4372 24.1271 10.4372 23.114C10.4372 21.906 10.0463 21.2436 8.63903 21.2436C8.3263 21.2436 7.97449 21.2436 7.70085 21.2826C7.70085 22.4126 7.70085 23.5426 7.70085 24.7896Z" fill="white"/>
<path d="M19.0515 38.8565C19.0515 38.7786 19.1688 38.0382 19.2469 37.6486C20.4197 30.5177 22.0615 22.9971 23.5078 15.7883C25.2669 15.7103 27.0651 15.7103 28.9023 15.7103C30.7787 15.7103 32.6159 15.7493 34.4923 15.7883C34.6877 15.7883 34.8832 15.9831 34.9223 16.1779C36.4077 23.6595 38.245 31.6087 39.3786 39.1683C38.1668 39.2462 37.3068 39.2852 35.9777 39.2852C34.6487 39.2852 33.515 39.2852 32.1469 39.1683C31.9514 39.1683 31.7559 39.0124 31.7169 38.7786C31.4432 37.5317 31.2087 36.2068 31.0132 34.8819H27.3778C27.1433 36.3237 26.9087 37.7655 26.6351 39.1683C25.3842 39.2462 24.6805 39.2852 23.3905 39.2852C22.0615 39.2852 20.6933 39.2462 19.4033 39.1683C19.2079 39.1683 19.0515 39.0514 19.0515 38.8565ZM28.0423 29.8163H30.2314C29.8014 26.9327 29.4105 24.0102 29.0196 21.0877C28.6678 23.9713 28.3551 26.8938 28.0423 29.8163Z" fill="url(#paint1_linear_213_2654)"/>
<path d="M19.0515 38.8565C19.0515 38.7786 19.1688 38.0382 19.2469 37.6486C20.4197 30.5177 22.0615 22.9971 23.5078 15.7883C25.2669 15.7103 27.0651 15.7103 28.9023 15.7103C30.7787 15.7103 32.6159 15.7493 34.4923 15.7883C34.6877 15.7883 34.8832 15.9831 34.9223 16.1779C36.4077 23.6595 38.245 31.6087 39.3786 39.1683C38.1668 39.2462 37.3068 39.2852 35.9777 39.2852C34.6487 39.2852 33.515 39.2852 32.1469 39.1683C31.9514 39.1683 31.7559 39.0124 31.7169 38.7786C31.4432 37.5317 31.2087 36.2068 31.0132 34.8819H27.3778C27.1433 36.3237 26.9087 37.7655 26.6351 39.1683C25.3842 39.2462 24.6805 39.2852 23.3905 39.2852C22.0615 39.2852 20.6933 39.2462 19.4033 39.1683C19.2079 39.1683 19.0515 39.0514 19.0515 38.8565ZM28.0423 29.8163H30.2314C29.8014 26.9327 29.4105 24.0102 29.0196 21.0877C28.6678 23.9713 28.3551 26.8938 28.0423 29.8163Z" fill="white"/>
<path d="M40.8848 27.4783C40.8848 23.5816 40.963 19.9967 40.963 16.1779C43.543 15.7883 46.3966 15.5155 48.5857 15.5155C55.192 15.5155 59.1792 16.3728 59.1792 24.7506C59.1792 32.1543 55.2311 33.7909 48.703 33.7909C48.703 35.5833 48.742 37.3758 48.7811 39.1683C47.6084 39.2462 46.4748 39.2462 45.3412 39.2462C44.0121 39.2462 42.683 39.2462 41.3539 39.1683C41.1194 39.1683 40.963 39.0124 40.963 38.7786C40.963 35.1157 40.8848 31.3749 40.8848 27.4783ZM48.6248 27.4393H49.2111C50.2666 27.4393 51.2438 27.1665 51.2438 24.8675C51.2438 22.4516 51.0484 22.1788 49.4848 22.1788H48.6248V27.4393Z" fill="url(#paint2_linear_213_2654)"/>
<path d="M40.8848 27.4783C40.8848 23.5816 40.963 19.9967 40.963 16.1779C43.543 15.7883 46.3966 15.5155 48.5857 15.5155C55.192 15.5155 59.1792 16.3728 59.1792 24.7506C59.1792 32.1543 55.2311 33.7909 48.703 33.7909C48.703 35.5833 48.742 37.3758 48.7811 39.1683C47.6084 39.2462 46.4748 39.2462 45.3412 39.2462C44.0121 39.2462 42.683 39.2462 41.3539 39.1683C41.1194 39.1683 40.963 39.0124 40.963 38.7786C40.963 35.1157 40.8848 31.3749 40.8848 27.4783ZM48.6248 27.4393H49.2111C50.2666 27.4393 51.2438 27.1665 51.2438 24.8675C51.2438 22.4516 51.0484 22.1788 49.4848 22.1788H48.6248V27.4393Z" fill="white"/>
<path d="M60.9627 27.4783C60.9627 23.5816 61.0018 19.6849 61.1191 15.7883C62.3309 15.7493 63.23 15.7103 64.52 15.7103C65.8491 15.7103 67.2173 15.7493 68.5463 15.7883C68.7418 15.7883 68.9372 15.9831 68.9372 16.1779C69.0154 19.8408 69.0936 23.5816 69.0936 27.4783C69.0936 31.3749 69.0154 35.2716 68.9372 39.1683C67.6863 39.2462 66.7873 39.2852 65.4973 39.2852C64.1682 39.2852 62.8 39.2462 61.51 39.1683C61.2755 39.1683 61.1191 39.0124 61.1191 38.7786C61.0409 35.1157 60.9627 31.3749 60.9627 27.4783Z" fill="url(#paint3_linear_213_2654)"/>
<path d="M60.9627 27.4783C60.9627 23.5816 61.0018 19.6849 61.1191 15.7883C62.3309 15.7493 63.23 15.7103 64.52 15.7103C65.8491 15.7103 67.2173 15.7493 68.5463 15.7883C68.7418 15.7883 68.9372 15.9831 68.9372 16.1779C69.0154 19.8408 69.0936 23.5816 69.0936 27.4783C69.0936 31.3749 69.0154 35.2716 68.9372 39.1683C67.6863 39.2462 66.7873 39.2852 65.4973 39.2852C64.1682 39.2852 62.8 39.2462 61.51 39.1683C61.2755 39.1683 61.1191 39.0124 61.1191 38.7786C61.0409 35.1157 60.9627 31.3749 60.9627 27.4783Z" fill="white"/>
<path d="M79.7369 27.4783C79.7369 29.3876 79.7369 31.0242 79.776 32.6608H80.4406C81.496 32.6608 82.2778 32.1153 82.2778 27.4783C82.2778 22.8412 81.496 22.3347 80.4406 22.3347H79.776C79.7369 23.9713 79.7369 25.6079 79.7369 27.4783ZM71.997 27.4783C71.997 23.5816 72.0752 20.0746 72.0752 16.1779C74.6552 15.7883 77.5088 15.5155 79.6979 15.5155C86.3042 15.5155 90.4478 18.3211 90.4478 27.4783C90.4478 37.2199 86.3433 39.2462 79.776 39.2462C77.6261 39.2462 75.1633 39.0514 72.4661 38.7786C72.2315 38.7786 72.0752 38.6227 72.0752 38.3889C72.0752 34.7261 71.997 31.3749 71.997 27.4783Z" fill="url(#paint4_linear_213_2654)"/>
<path d="M79.7369 27.4783C79.7369 29.3876 79.7369 31.0242 79.776 32.6608H80.4406C81.496 32.6608 82.2778 32.1153 82.2778 27.4783C82.2778 22.8412 81.496 22.3347 80.4406 22.3347H79.776C79.7369 23.9713 79.7369 25.6079 79.7369 27.4783ZM71.997 27.4783C71.997 23.5816 72.0752 20.0746 72.0752 16.1779C74.6552 15.7883 77.5088 15.5155 79.6979 15.5155C86.3042 15.5155 90.4478 18.3211 90.4478 27.4783C90.4478 37.2199 86.3433 39.2462 79.776 39.2462C77.6261 39.2462 75.1633 39.0514 72.4661 38.7786C72.2315 38.7786 72.0752 38.6227 72.0752 38.3889C72.0752 34.7261 71.997 31.3749 71.997 27.4783Z" fill="white"/>
<path d="M92.4948 27.4783C92.4948 23.5816 92.5339 19.6849 92.6512 15.7883C93.863 15.7493 99.453 15.7103 100.743 15.7103C102.072 15.7103 105.707 15.7493 107.037 15.7883C107.232 15.7883 107.388 15.9831 107.427 16.1779C107.427 17.3859 107.427 18.477 107.427 19.568C107.427 20.5032 107.427 21.4384 107.427 22.4126C106.177 22.4905 103.01 22.5295 101.72 22.5295C101.447 22.5295 100.978 22.5295 100.391 22.4905C100.391 23.5816 100.391 24.6727 100.391 25.8806C101.877 25.8806 103.831 25.9196 104.769 25.9196C104.965 25.9196 105.121 26.1144 105.16 26.3093C105.16 27.5172 105.16 28.6083 105.16 29.6994C105.16 30.6346 105.16 31.5698 105.16 32.5439C104.066 32.6219 101.838 32.6608 100.391 32.6608C100.43 34.843 100.469 37.0251 100.469 39.1683C99.2184 39.2462 98.3193 39.2852 97.0294 39.2852C95.7003 39.2852 94.3321 39.2462 93.0421 39.1683C92.8076 39.1683 92.6512 39.0124 92.6512 38.7786C92.573 35.1157 92.4948 31.3749 92.4948 27.4783Z" fill="url(#paint5_linear_213_2654)"/>
<path d="M92.4948 27.4783C92.4948 23.5816 92.5339 19.6849 92.6512 15.7883C93.863 15.7493 99.453 15.7103 100.743 15.7103C102.072 15.7103 105.707 15.7493 107.037 15.7883C107.232 15.7883 107.388 15.9831 107.427 16.1779C107.427 17.3859 107.427 18.477 107.427 19.568C107.427 20.5032 107.427 21.4384 107.427 22.4126C106.177 22.4905 103.01 22.5295 101.72 22.5295C101.447 22.5295 100.978 22.5295 100.391 22.4905C100.391 23.5816 100.391 24.6727 100.391 25.8806C101.877 25.8806 103.831 25.9196 104.769 25.9196C104.965 25.9196 105.121 26.1144 105.16 26.3093C105.16 27.5172 105.16 28.6083 105.16 29.6994C105.16 30.6346 105.16 31.5698 105.16 32.5439C104.066 32.6219 101.838 32.6608 100.391 32.6608C100.43 34.843 100.469 37.0251 100.469 39.1683C99.2184 39.2462 98.3193 39.2852 97.0294 39.2852C95.7003 39.2852 94.3321 39.2462 93.0421 39.1683C92.8076 39.1683 92.6512 39.0124 92.6512 38.7786C92.573 35.1157 92.4948 31.3749 92.4948 27.4783Z" fill="white"/>
<path d="M108.91 27.4783C108.91 23.5816 108.949 19.6849 109.066 15.7883C110.278 15.7493 111.177 15.7103 112.467 15.7103C113.796 15.7103 115.164 15.7493 116.493 15.7883C116.689 15.7883 116.884 15.9831 116.884 16.1779C116.963 19.8408 117.041 23.5816 117.041 27.4783C117.041 31.3749 116.963 35.2716 116.884 39.1683C115.633 39.2462 114.734 39.2852 113.444 39.2852C112.115 39.2852 110.747 39.2462 109.457 39.1683C109.223 39.1683 109.066 39.0124 109.066 38.7786C108.988 35.1157 108.91 31.3749 108.91 27.4783Z" fill="url(#paint6_linear_213_2654)"/>
<path d="M108.91 27.4783C108.91 23.5816 108.949 19.6849 109.066 15.7883C110.278 15.7493 111.177 15.7103 112.467 15.7103C113.796 15.7103 115.164 15.7493 116.493 15.7883C116.689 15.7883 116.884 15.9831 116.884 16.1779C116.963 19.8408 117.041 23.5816 117.041 27.4783C117.041 31.3749 116.963 35.2716 116.884 39.1683C115.633 39.2462 114.734 39.2852 113.444 39.2852C112.115 39.2852 110.747 39.2462 109.457 39.1683C109.223 39.1683 109.066 39.0124 109.066 38.7786C108.988 35.1157 108.91 31.3749 108.91 27.4783Z" fill="white"/>
<path d="M119.944 26.9717C119.944 23.075 120.022 20.0746 120.022 16.1779C122.602 15.7883 125.847 15.5155 128.036 15.5155C133.86 15.5155 137.848 15.9831 137.848 22.2957C137.848 25.1792 136.245 27.3614 133.665 28.5693C134.564 28.8811 135.307 29.5045 135.854 30.4008C137.379 33.4402 138.278 36.2458 138.942 39.1683C137.652 39.3241 136.245 39.4021 134.877 39.4021C133.821 39.4021 132.766 39.3631 131.71 39.2852C131.515 39.2852 131.202 39.1293 131.124 38.8955C130.029 35.5833 128.935 32.2712 128.153 29.5825C127.997 29.5825 127.801 29.5825 127.645 29.5825C127.684 32.7777 127.801 36.1289 127.84 39.1683C126.668 39.2462 125.534 39.2462 124.4 39.2462C123.071 39.2462 121.742 39.2462 120.413 39.1683C120.179 39.1683 120.022 39.0124 120.022 38.7786C120.022 35.1157 119.944 30.8684 119.944 26.9717ZM127.645 24.7896H128.309C129.521 24.7896 130.381 24.1271 130.381 23.114C130.381 21.906 129.99 21.2436 128.583 21.2436C128.27 21.2436 127.919 21.2436 127.645 21.2826C127.645 22.4126 127.645 23.5426 127.645 24.7896Z" fill="url(#paint7_linear_213_2654)"/>
<path d="M119.944 26.9717C119.944 23.075 120.022 20.0746 120.022 16.1779C122.602 15.7883 125.847 15.5155 128.036 15.5155C133.86 15.5155 137.848 15.9831 137.848 22.2957C137.848 25.1792 136.245 27.3614 133.665 28.5693C134.564 28.8811 135.307 29.5045 135.854 30.4008C137.379 33.4402 138.278 36.2458 138.942 39.1683C137.652 39.3241 136.245 39.4021 134.877 39.4021C133.821 39.4021 132.766 39.3631 131.71 39.2852C131.515 39.2852 131.202 39.1293 131.124 38.8955C130.029 35.5833 128.935 32.2712 128.153 29.5825C127.997 29.5825 127.801 29.5825 127.645 29.5825C127.684 32.7777 127.801 36.1289 127.84 39.1683C126.668 39.2462 125.534 39.2462 124.4 39.2462C123.071 39.2462 121.742 39.2462 120.413 39.1683C120.179 39.1683 120.022 39.0124 120.022 38.7786C120.022 35.1157 119.944 30.8684 119.944 26.9717ZM127.645 24.7896H128.309C129.521 24.7896 130.381 24.1271 130.381 23.114C130.381 21.906 129.99 21.2436 128.583 21.2436C128.27 21.2436 127.919 21.2436 127.645 21.2826C127.645 22.4126 127.645 23.5426 127.645 24.7896Z" fill="white"/>
<path d="M140.442 27.4783C140.442 23.5816 140.481 19.6849 140.598 15.7883C141.81 15.7493 147.4 15.7103 148.69 15.7103C150.019 15.7103 154.202 15.7493 155.531 15.7883C155.726 15.7883 155.883 15.9831 155.922 16.1779C155.922 17.3859 155.922 18.477 155.922 19.568C155.922 20.5032 155.922 21.4384 155.922 22.4126C154.671 22.4905 150.996 22.4905 149.706 22.4905C149.394 22.4905 148.846 22.4905 148.182 22.4905C148.182 23.153 148.182 23.8544 148.182 24.5558C149.745 24.5558 151.856 24.5947 152.873 24.5947C153.068 24.5947 153.225 24.7896 153.264 24.9844C153.264 26.0755 153.264 27.0107 153.264 27.9459C153.264 28.7642 153.264 29.5825 153.264 30.5177H148.182C148.182 31.2191 148.182 31.8815 148.182 32.5439H148.69C150.019 32.5439 154.28 32.5829 155.609 32.6219C155.805 32.6219 155.961 32.8167 156 33.0115C156 34.2195 156 35.3106 156 36.4016C156 37.3368 156 38.272 156 39.2462C154.749 39.3241 150.566 39.3631 149.276 39.3631C147.947 39.3631 142.279 39.2462 140.989 39.1683C140.755 39.1683 140.598 39.0124 140.598 38.7786C140.52 35.1157 140.442 31.3749 140.442 27.4783Z" fill="url(#paint8_linear_213_2654)"/>
<path d="M140.442 27.4783C140.442 23.5816 140.481 19.6849 140.598 15.7883C141.81 15.7493 147.4 15.7103 148.69 15.7103C150.019 15.7103 154.202 15.7493 155.531 15.7883C155.726 15.7883 155.883 15.9831 155.922 16.1779C155.922 17.3859 155.922 18.477 155.922 19.568C155.922 20.5032 155.922 21.4384 155.922 22.4126C154.671 22.4905 150.996 22.4905 149.706 22.4905C149.394 22.4905 148.846 22.4905 148.182 22.4905C148.182 23.153 148.182 23.8544 148.182 24.5558C149.745 24.5558 151.856 24.5947 152.873 24.5947C153.068 24.5947 153.225 24.7896 153.264 24.9844C153.264 26.0755 153.264 27.0107 153.264 27.9459C153.264 28.7642 153.264 29.5825 153.264 30.5177H148.182C148.182 31.2191 148.182 31.8815 148.182 32.5439H148.69C150.019 32.5439 154.28 32.5829 155.609 32.6219C155.805 32.6219 155.961 32.8167 156 33.0115C156 34.2195 156 35.3106 156 36.4016C156 37.3368 156 38.272 156 39.2462C154.749 39.3241 150.566 39.3631 149.276 39.3631C147.947 39.3631 142.279 39.2462 140.989 39.1683C140.755 39.1683 140.598 39.0124 140.598 38.7786C140.52 35.1157 140.442 31.3749 140.442 27.4783Z" fill="white"/>
<path fill-rule="evenodd" clip-rule="evenodd" d="M112.377 0.385049C112.195 0.824679 111.766 1.85662 109.183 4.54048C109.014 4.71636 108.877 4.88607 108.768 5.04919C107.922 6.08514 107.392 7.41357 107.392 8.7619C107.392 11.99 110.017 14.6069 113.255 14.6069C116.494 14.6069 118.956 11.6032 118.956 8.92424C118.956 7.37392 118.465 6.28578 118.051 5.6441C117.748 5.09825 117.366 4.67451 117.082 4.40213C116.857 4.18654 116.511 4.20739 116.284 4.42052C116.284 4.42052 115.304 5.33868 114.676 5.927C114.662 5.95662 114.692 5.89819 114.676 5.927C115.79 3.64506 114.004 0.908368 113.255 0.191168C113.03 -0.0244195 112.637 -0.107225 112.457 0.209555C112.432 0.254845 112.408 0.31171 112.377 0.385049ZM110.221 11.5719C110.434 12.4431 111.102 13.0289 111.714 12.8802C112.326 12.7315 112.649 11.9048 112.436 11.0336C112.223 10.1624 111.554 9.5767 110.942 9.72536C110.331 9.87402 110.007 10.7008 110.221 11.5719ZM116.317 11.5719C116.104 12.4431 115.436 13.0289 114.824 12.8802C114.212 12.7315 113.889 11.9048 114.102 11.0336C114.315 10.1624 114.984 9.5767 115.595 9.72536C116.207 9.87402 116.53 10.7008 116.317 11.5719Z" fill="url(#paint9_linear_213_2654)"/>
<path fill-rule="evenodd" clip-rule="evenodd" d="M112.377 0.385049C112.195 0.824679 111.766 1.85662 109.183 4.54048C109.014 4.71636 108.877 4.88607 108.768 5.04919C107.922 6.08514 107.392 7.41357 107.392 8.7619C107.392 11.99 110.017 14.6069 113.255 14.6069C116.494 14.6069 118.956 11.6032 118.956 8.92424C118.956 7.37392 118.465 6.28578 118.051 5.6441C117.748 5.09825 117.366 4.67451 117.082 4.40213C116.857 4.18654 116.511 4.20739 116.284 4.42052C116.284 4.42052 115.304 5.33868 114.676 5.927C114.662 5.95662 114.692 5.89819 114.676 5.927C115.79 3.64506 114.004 0.908368 113.255 0.191168C113.03 -0.0244195 112.637 -0.107225 112.457 0.209555C112.432 0.254845 112.408 0.31171 112.377 0.385049ZM110.221 11.5719C110.434 12.4431 111.102 13.0289 111.714 12.8802C112.326 12.7315 112.649 11.9048 112.436 11.0336C112.223 10.1624 111.554 9.5767 110.942 9.72536C110.331 9.87402 110.007 10.7008 110.221 11.5719ZM116.317 11.5719C116.104 12.4431 115.436 13.0289 114.824 12.8802C114.212 12.7315 113.889 11.9048 114.102 11.0336C114.315 10.1624 114.984 9.5767 115.595 9.72536C116.207 9.87402 116.53 10.7008 116.317 11.5719Z" fill="white"/>
<defs>
<linearGradient id="paint0_linear_213_2654" x1="62.2745" y1="11.2841" x2="80.6015" y2="44.3863" gradientUnits="userSpaceOnUse">
<stop stop-color="#FF3166"/>
<stop offset="0.489583" stop-color="#F16954"/>
<stop offset="1" stop-color="#F2A041"/>
</linearGradient>
<linearGradient id="paint1_linear_213_2654" x1="62.2745" y1="11.2841" x2="80.6015" y2="44.3863" gradientUnits="userSpaceOnUse">
<stop stop-color="#FF3166"/>
<stop offset="0.489583" stop-color="#F16954"/>
<stop offset="1" stop-color="#F2A041"/>
</linearGradient>
<linearGradient id="paint2_linear_213_2654" x1="62.2745" y1="11.2841" x2="80.6015" y2="44.3863" gradientUnits="userSpaceOnUse">
<stop stop-color="#FF3166"/>
<stop offset="0.489583" stop-color="#F16954"/>
<stop offset="1" stop-color="#F2A041"/>
</linearGradient>
<linearGradient id="paint3_linear_213_2654" x1="62.2745" y1="11.2841" x2="80.6015" y2="44.3863" gradientUnits="userSpaceOnUse">
<stop stop-color="#FF3166"/>
<stop offset="0.489583" stop-color="#F16954"/>
<stop offset="1" stop-color="#F2A041"/>
</linearGradient>
<linearGradient id="paint4_linear_213_2654" x1="62.2745" y1="11.2841" x2="80.6015" y2="44.3863" gradientUnits="userSpaceOnUse">
<stop stop-color="#FF3166"/>
<stop offset="0.489583" stop-color="#F16954"/>
<stop offset="1" stop-color="#F2A041"/>
</linearGradient>
<linearGradient id="paint5_linear_213_2654" x1="62.2745" y1="11.2841" x2="80.6015" y2="44.3863" gradientUnits="userSpaceOnUse">
<stop stop-color="#FF3166"/>
<stop offset="0.489583" stop-color="#F16954"/>
<stop offset="1" stop-color="#F2A041"/>
</linearGradient>
<linearGradient id="paint6_linear_213_2654" x1="62.2745" y1="11.2841" x2="80.6015" y2="44.3863" gradientUnits="userSpaceOnUse">
<stop stop-color="#FF3166"/>
<stop offset="0.489583" stop-color="#F16954"/>
<stop offset="1" stop-color="#F2A041"/>
</linearGradient>
<linearGradient id="paint7_linear_213_2654" x1="62.2745" y1="11.2841" x2="80.6015" y2="44.3863" gradientUnits="userSpaceOnUse">
<stop stop-color="#FF3166"/>
<stop offset="0.489583" stop-color="#F16954"/>
<stop offset="1" stop-color="#F2A041"/>
</linearGradient>
<linearGradient id="paint8_linear_213_2654" x1="62.2745" y1="11.2841" x2="80.6015" y2="44.3863" gradientUnits="userSpaceOnUse">
<stop stop-color="#FF3166"/>
<stop offset="0.489583" stop-color="#F16954"/>
<stop offset="1" stop-color="#F2A041"/>
</linearGradient>
<linearGradient id="paint9_linear_213_2654" x1="62.2745" y1="11.2841" x2="80.6015" y2="44.3863" gradientUnits="userSpaceOnUse">
<stop stop-color="#FF3166"/>
<stop offset="0.489583" stop-color="#F16954"/>
<stop offset="1" stop-color="#F2A041"/>
</linearGradient>
</defs>
</svg>
